<svg
  width="76"
  height="74"
  viewBox="0 0 76 74"
  fill="none"
  xmlns="http://www.w3.org/2000/svg"
>
      <g clip-path="url(#clip0_4_50)">
        <path
      d="M76.0047 9.29752C75.6937 9.5823 75.4306 9.98624 75.0622 10.1284C74.146 10.482 73.3353 9.82132 73.3164 8.72759C73.2873 7.03217 73.3072 5.33604 73.3065 3.64008C73.3063 3.38258 73.3065 3.12507 73.3065 2.81929C50.1267 2.81929 27.0252 2.81929 3.86144 2.81929C3.86144 25.4724 3.86144 48.1199 3.86144 70.8129C18.8682 70.8129 33.8482 70.8129 48.8696 70.8129C48.8696 69.8481 48.8696 68.9277 48.8696 67.9262C48.6082 67.9122 48.352 67.8871 48.0959 67.8865C46.0234 67.8833 43.9509 67.8885 41.8783 67.8833C40.5154 67.8797 40.0383 67.4077 40.0372 66.061C40.0337 62.2154 40.0359 58.3699 40.0359 54.5243C40.0359 54.2668 40.0359 54.0093 40.0359 53.7032C39.0315 53.7032 38.0965 53.7032 37.0699 53.7032C37.0699 54.0038 37.0699 54.283 37.0699 54.5622C37.0699 58.36 37.0708 62.1577 37.0693 65.9555C37.0688 67.4549 36.6354 67.884 35.1158 67.8844C26.3138 67.8854 17.5116 67.8856 8.7096 67.8842C7.23903 67.884 6.79965 67.4483 6.79947 66.0009C6.79874 58.5486 6.79856 51.0964 6.79965 43.6441C6.79984 42.2214 7.21503 41.817 8.67406 41.8168C20.5971 41.8159 32.5202 41.8162 44.4433 41.8162C44.734 41.8162 45.025 41.8162 45.3805 41.8162C45.3805 40.8472 45.3805 39.9091 45.3805 38.876C45.0772 38.876 44.7672 38.876 44.4572 38.876C35.6796 38.876 26.9018 38.8763 18.1241 38.8742C17.8079 38.8742 17.4881 38.8742 17.1763 38.8308C16.5172 38.7389 16.0628 38.2501 16.0264 37.6339C15.9884 36.9934 16.4243 36.4228 17.094 36.2844C17.3527 36.2309 17.627 36.2374 17.8944 36.2374C27.3547 36.2352 36.8152 36.2352 46.2755 36.2361C47.706 36.2363 48.1649 36.6788 48.1693 38.0678C48.1741 39.5965 48.1752 41.1252 48.169 42.6537C48.1635 43.9992 47.7036 44.4457 46.3156 44.4459C34.3926 44.4478 22.4695 44.4469 10.5464 44.4469C10.2333 44.4469 9.91999 44.4469 9.54566 44.4469C9.54566 45.6352 9.54566 46.7652 9.54566 47.9898C10.6621 47.9898 11.7752 48.0204 12.8857 47.9822C14.3847 47.9305 15.6854 48.2959 16.6636 49.5723C18.1646 48.8371 19.7536 48.5371 21.4031 48.7124C22.1707 48.794 22.9393 48.9729 23.6748 49.2062C24.5079 49.4706 24.856 50.1708 24.6277 50.8903C24.4174 51.5532 23.7321 51.9209 22.9164 51.7099C21.7764 51.4151 20.6459 51.1536 19.4622 51.4238C19.3437 51.4509 19.2226 51.4674 19.1047 51.4969C17.4718 51.9046 17.3352 52.0747 17.3352 53.6939C17.3352 54.9358 17.3168 56.1785 17.3515 57.4195C17.3581 57.655 17.5114 57.9782 17.7038 58.1025C19.6112 59.3369 22.7167 59.0473 24.3804 57.5125C25.5772 56.4083 25.8365 55.1669 25.1809 53.6799C25.1327 53.5704 25.0827 53.4615 25.0404 53.3498C24.7492 52.5818 24.9907 51.8918 25.6565 51.5836C26.3323 51.2706 27.01 51.5107 27.4512 52.219C28.7472 54.2995 28.439 57.124 26.7194 58.9272C24.3582 61.4033 20.5953 62.2036 17.3885 60.9118C17.1637 60.8211 16.9388 60.7307 16.6612 60.6189C15.6359 62.0123 14.1481 62.2644 12.5156 62.1923C11.5437 62.1494 10.5684 62.1844 9.53943 62.1844C9.53943 63.1895 9.53943 64.1535 9.53943 65.1636C17.7872 65.1636 26.0148 65.1636 34.3429 65.1636C34.3429 64.8754 34.3429 64.5987 34.3429 64.322C34.3429 60.5242 34.3418 56.7265 34.3435 52.9287C34.3442 51.4246 34.7713 51.0047 36.2923 51.0036C37.8041 51.0025 39.3157 51.0023 40.8275 51.0036C42.3034 51.0048 42.7603 51.4421 42.7614 52.8713C42.7644 56.6691 42.7625 60.4667 42.7625 64.2645C42.7625 64.547 42.7625 64.8295 42.7625 65.209C43.0777 65.209 43.3362 65.209 43.5947 65.209C45.6672 65.209 47.7399 65.2043 49.8123 65.2108C51.0999 65.2149 51.5876 65.6888 51.5922 66.9319C51.5981 68.556 51.5695 70.1807 51.6037 71.8042C51.621 72.6212 51.3214 73.1863 50.5491 73.5014C34.4078 73.5014 18.2665 73.5014 2.12519 73.5014C1.32798 73.1547 1.09143 72.5358 1.0918 71.7109C1.10352 48.4509 1.10114 25.1906 1.10187 1.93049C1.10187 0.574226 1.55866 0.126146 2.94165 0.126146C26.6859 0.125248 50.4304 0.127761 74.1746 0.116455C75.0167 0.116097 75.6514 0.344712 76.0047 1.12872C76.0047 3.85147 76.0047 6.5744 76.0047 9.29752ZM9.48666 50.6811C9.48666 53.541 9.48135 56.3504 9.50334 59.1598C9.50444 59.2903 9.74739 59.5286 9.88152 59.5311C11.1232 59.5553 12.3668 59.5639 13.608 59.523C14.2245 59.5027 14.6047 59.1237 14.6078 58.503C14.6196 56.212 14.6174 53.921 14.6011 51.63C14.5974 51.1206 14.3106 50.7113 13.7786 50.6953C12.3761 50.6531 10.9715 50.6811 9.48666 50.6811Z"
      fill="#F8780F"
    />
        <path
      d="M60.7899 73.5017C60.0039 73.1405 59.7575 72.5094 59.7714 71.6947C59.7979 70.1426 59.7763 68.5899 59.7798 67.0373C59.7827 65.695 60.2639 65.2146 61.617 65.2105C63.3238 65.2053 65.0303 65.2093 66.7371 65.2093C67.0007 65.2093 67.2642 65.2093 67.5746 65.2093C67.5746 58.2787 67.5746 51.4141 67.5746 44.4469C66.7221 44.4469 65.9025 44.447 65.0829 44.4469C64.0589 44.4465 63.0345 44.4621 62.0109 44.4406C60.9862 44.4189 60.5017 43.9322 60.4937 42.9185C60.4803 41.2229 60.4823 39.527 60.4926 37.8312C60.4993 36.7134 60.9975 36.2425 62.1689 36.2377C63.9473 36.2303 65.7257 36.2357 67.5627 36.2357C67.5627 34.9968 67.5627 33.7977 67.5627 32.5274C66.5091 32.5274 65.491 32.5305 64.4728 32.5267C63.1618 32.5219 62.6915 32.0765 62.6909 30.818C62.6878 25.0142 62.6878 19.2103 62.6909 13.4064C62.6916 12.1743 63.1552 11.7229 64.4112 11.7151C65.434 11.7089 66.4567 11.7139 67.5504 11.7139C67.5504 10.5769 67.5504 9.47582 67.5504 8.33382C59.3157 8.33382 51.0876 8.33382 42.7627 8.33382C42.7627 8.62614 42.7627 8.90285 42.7627 9.17973C42.7627 15.0552 42.7631 20.9308 42.7623 26.8063C42.7621 28.4093 42.3689 28.7949 40.7404 28.7955C39.2532 28.796 37.7659 28.7965 36.2787 28.7953C34.7616 28.7942 34.344 28.3793 34.3436 26.865C34.3424 20.9895 34.3431 15.1139 34.3431 9.23841C34.3431 8.95506 34.3431 8.67172 34.3431 8.34153C30.8677 8.34153 27.4424 8.34153 23.9131 8.34153C23.9131 8.61106 23.9131 8.88669 23.9131 9.16251C23.9129 14.2976 23.9307 19.4328 23.9071 24.5679C23.8878 28.7458 21.168 32.1328 17.061 32.9795C15.8145 33.2364 14.4946 33.1738 13.2069 33.2106C11.995 33.2452 10.7811 33.2179 9.52696 33.2179C9.52696 34.237 9.52696 35.1818 9.52696 36.1946C9.77046 36.2086 10.0032 36.2323 10.236 36.2337C11.1624 36.2398 12.0899 36.2129 13.015 36.2488C13.821 36.28 14.3815 36.8593 14.374 37.5694C14.3667 38.2557 13.8414 38.8287 13.0616 38.8461C11.4052 38.8831 9.74646 38.8838 8.09028 38.8424C7.30589 38.8228 6.86651 38.3178 6.80642 37.5462C6.79157 37.3562 6.79945 37.1644 6.79945 36.9732C6.79927 27.1806 6.79909 17.3882 6.79945 7.59557C6.79945 6.02451 7.1758 5.65198 8.77701 5.6518C17.5543 5.65054 26.3315 5.65054 35.1088 5.65198C36.6483 5.65216 37.0691 6.06309 37.0695 7.55753C37.0706 13.433 37.07 19.3086 37.07 25.1841C37.07 25.4689 37.07 25.7537 37.07 26.0984C38.0492 26.0984 38.9829 26.0984 40.0361 26.0984C40.0361 25.8303 40.0361 25.5563 40.0361 25.2824C40.0361 19.3831 40.0355 13.4836 40.0365 7.58427C40.0366 6.0622 40.443 5.65252 41.9699 5.65234C50.7715 5.65054 59.5731 5.65054 68.3749 5.65234C69.9161 5.6527 70.3065 6.04425 70.3067 7.57027C70.3071 17.3629 70.3071 27.1553 70.3067 36.9479C70.3067 38.5052 69.9252 38.8743 68.3123 38.8757C66.6356 38.8774 64.9589 38.8761 63.2292 38.8761C63.2292 39.8697 63.2292 40.7869 63.2292 41.7831C63.4896 41.7943 63.7463 41.8144 64.0032 41.8149C65.5879 41.8181 67.1728 41.8061 68.7575 41.821C69.7828 41.8307 70.3006 42.3235 70.3017 43.321C70.3098 50.9879 70.3094 58.6546 70.3028 66.3215C70.3019 67.3693 69.7702 67.8696 68.6531 67.8802C66.8978 67.8967 65.1423 67.8848 63.3868 67.885C63.124 67.885 62.8613 67.885 62.5509 67.885C62.5509 68.8921 62.5509 69.8327 62.5509 70.8132C66.1266 70.8132 69.6722 70.8132 73.3068 70.8132C73.3068 70.4416 73.3068 70.1143 73.3068 69.7871C73.3068 51.3724 73.3068 32.9576 73.3072 14.5429C73.3072 14.2563 73.305 13.9695 73.3175 13.6833C73.3466 13.0169 73.6568 12.5306 74.334 12.3629C75.0143 12.1946 75.5165 12.4832 75.8588 13.064C75.9072 13.1462 75.9561 13.2282 76.0048 13.3102C76.0048 33.3741 76.0048 53.4379 76.0048 73.5017C70.9234 73.5017 65.8567 73.5017 60.7899 73.5017ZM13.2389 8.3261C13.1026 9.88963 12.781 10.4398 11.9258 10.4377C10.4544 10.4341 10.4938 9.30283 10.438 8.32287C10.0983 8.32287 9.83496 8.32287 9.54967 8.32287C9.54967 15.7328 9.54967 23.1147 9.54967 30.5505C11.2207 30.5505 12.8272 30.5675 14.4332 30.5427C15.1604 30.5316 15.9109 30.5341 16.6086 30.3642C19.4959 29.6611 21.1818 27.4283 21.1897 24.3445C21.2025 19.234 21.1939 14.1235 21.1915 9.01303C21.1913 8.78477 21.1653 8.55651 21.1514 8.32861C20.8166 8.32861 20.5568 8.32861 20.3023 8.32861C20.0529 9.9745 19.7193 10.4831 18.857 10.4382C18.562 10.4228 18.1316 10.3187 18.0143 10.1157C17.7067 9.58385 17.5376 8.97516 17.278 8.30618C17.1942 8.31013 16.9692 8.3209 16.7103 8.33328C16.7103 9.45752 16.7298 10.5073 16.7047 11.5562C16.6808 12.5496 16.1024 13.152 15.2784 13.1032C14.5004 13.057 14.0085 12.4871 13.9931 11.5597C13.9755 10.4917 13.9891 9.42306 13.9891 8.3261C13.7034 8.3261 13.4945 8.3261 13.2389 8.3261ZM67.5731 29.8547C67.5731 24.6454 67.5731 19.5301 67.5731 14.3885C66.8373 14.3885 66.1506 14.3885 65.4496 14.3885C65.4496 19.5739 65.4496 24.7078 65.4496 29.8547C66.1808 29.8547 66.8518 29.8547 67.5731 29.8547Z"
      fill="#F8780F"
    />
        <path
      d="M58.9526 22.1965C58.9526 25.0143 58.9548 27.8324 58.9517 30.6502C58.9501 32.1231 58.5395 32.5265 57.0528 32.5273C54.0543 32.5287 51.056 32.5301 48.0575 32.5265C46.7441 32.5249 46.2884 32.0871 46.2877 30.8151C46.2844 25.0122 46.2842 19.2092 46.2877 13.4063C46.2884 12.1636 46.7395 11.7182 47.9988 11.7159C51.0461 11.7103 54.0933 11.7119 57.1403 11.7148C58.5281 11.7162 58.949 12.1352 58.9512 13.5279C58.9559 16.4172 58.9526 19.3068 58.9526 22.1965ZM56.1969 29.8499C56.1969 29.2615 56.1969 28.7502 56.1969 28.2492C56.0917 28.2324 56.0443 28.2182 55.9966 28.218C54.9239 28.2153 53.8511 28.2164 52.7783 28.2123C51.4356 28.2071 50.9827 27.7636 50.9814 26.4424C50.9785 23.6001 50.9797 20.7577 50.9807 17.9154C50.9812 16.4305 51.3816 16.033 52.8752 16.0312C53.9874 16.03 55.0996 16.031 56.2074 16.031C56.2074 15.4229 56.2074 14.9104 56.2074 14.3866C53.7851 14.3866 51.4103 14.3866 49.0048 14.3866C49.0048 19.5581 49.0048 24.6806 49.0048 29.8501C51.4197 29.8499 53.7948 29.8499 56.1969 29.8499ZM53.7094 18.7032C53.7094 21.0116 53.7094 23.2374 53.7094 25.5087C54.5633 25.5087 55.3735 25.5087 56.2077 25.5087C56.2077 23.2242 56.2077 20.9798 56.2077 18.7032C55.3685 18.7032 54.5765 18.7032 53.7094 18.7032Z"
      fill="#F8780F"
    />
        <path
      d="M21.5782 55.1017C21.5696 55.8089 20.925 56.4221 20.2098 56.4036C19.4705 56.3844 18.8981 55.7778 18.9221 55.0391C18.9448 54.3342 19.5255 53.7768 20.2375 53.7761C20.9618 53.775 21.587 54.3932 21.5782 55.1017Z"
      fill="#F8780F"
    />
        <path
      d="M16.6795 25.7665C16.6668 26.4815 16.0289 27.0837 15.3106 27.0589C14.5905 27.034 13.9716 26.3847 14.0079 25.6923C14.0443 24.9983 14.6374 24.4492 15.3507 24.4492C16.0988 24.4494 16.6923 25.0376 16.6795 25.7665Z"
      fill="#F8780F"
    />
      </g>
      <defs>
        <clipPath id="clip0_4_50">
          <rect
        width="75.0494"
        height="73.5016"
        fill="white"
        transform="translate(0.955078)"
      />
        </clipPath>
      </defs>
    </svg>
