<svg
  width="76"
  height="74"
  viewBox="0 0 76 74"
  fill="none"
  xmlns="http://www.w3.org/2000/svg"
>
      <path
    d="M26.7215 49.0005C26.7215 47.7719 26.7102 46.629 26.7251 45.4865C26.737 44.5746 27.1967 44.101 28.1134 44.0998C34.6787 44.0912 41.244 44.0918 47.8091 44.099C48.7381 44.1 49.212 44.5617 49.2262 45.4586C49.2441 46.6012 49.2305 47.7441 49.2305 48.9404C52.0188 48.9404 54.9453 48.9404 57.9787 48.9404C57.9787 47.9997 58.0052 47.0406 57.9568 46.0849C57.947 45.8901 57.6816 45.6774 57.4904 45.5261C55.7887 44.1797 54.0727 42.8507 52.3706 41.5052C51.6345 40.9233 51.5309 40.1606 52.0779 39.5892C52.5295 39.1175 53.1923 39.0408 53.771 39.4867C55.8587 41.0952 57.9409 42.7119 59.9822 44.3758C60.2716 44.6116 60.4411 45.1201 60.4634 45.5132C60.5271 46.6308 60.4858 47.7543 60.4858 48.9459C60.7348 48.9629 60.9576 48.9909 61.1801 48.9913C63.7853 48.9944 66.3908 48.9983 68.996 48.9917C71.3145 48.9858 73.007 47.407 72.9888 45.2814C72.9711 43.1949 71.2828 41.6546 68.9976 41.6469C67.5388 41.642 66.0797 41.6491 64.6208 41.6448C63.4021 41.6414 62.9885 41.2347 62.9883 40.0298C62.9866 29.4681 62.9872 18.9065 62.9872 8.34483C62.9872 8.04427 62.9872 7.74372 62.9872 7.40084C62.153 7.40084 61.3814 7.40084 60.4862 7.40084C60.4862 7.67727 60.4862 7.97026 60.4862 8.26325C60.4862 17.4984 60.4862 26.7335 60.4862 35.9684C60.4862 36.1724 60.4912 36.3767 60.4847 36.5805C60.4582 37.4239 59.9793 37.9582 59.247 37.9658C58.5127 37.9733 57.9994 37.4389 57.9896 36.6045C57.9739 35.2781 57.9852 33.9514 57.985 32.6248C57.985 32.3993 57.985 32.1736 57.985 31.8493C57.6591 31.8493 57.3831 31.8493 57.1071 31.8493C52.9908 31.8493 48.8744 31.8499 44.7581 31.8489C43.3598 31.8485 42.979 31.4854 42.9788 30.147C42.9776 23.9221 42.9776 17.6975 42.979 11.4727C42.9794 10.1827 43.3717 9.80775 44.7155 9.80734C48.8318 9.80591 52.9483 9.80694 57.0645 9.80694C57.3445 9.80694 57.6246 9.80694 57.9443 9.80694C57.9443 8.98337 57.9443 8.22788 57.9443 7.41474C51.3243 7.41474 44.6986 7.41474 37.9759 7.41474C37.9759 7.68156 37.9759 7.95247 37.9759 8.22318C37.9759 13.8868 37.9766 19.5501 37.9755 25.2137C37.9753 26.5771 37.6008 26.9488 36.2302 26.9504C34.7192 26.9522 33.2073 26.9236 31.6977 26.9723C31.372 26.9827 30.9557 27.188 30.752 27.4374C29.7764 28.6317 28.863 29.8746 27.9205 31.095C27.3109 31.8845 26.6326 32.0593 25.9948 31.6082C25.3334 31.1406 25.3117 30.4385 25.9466 29.6047C27.0361 28.1737 28.1528 26.7619 29.2154 25.3123C29.6587 24.7075 30.1891 24.4725 30.9363 24.4909C32.4158 24.5271 33.897 24.5016 35.4258 24.5016C35.4258 18.7764 35.4258 13.1051 35.4258 7.39552C34.6296 7.39552 33.858 7.39552 32.9735 7.39552C32.9735 8.42743 32.9392 9.46344 32.9837 10.4964C33.0236 11.4246 32.7622 12.1045 31.72 12.3077C31.72 13.1558 31.7361 13.9712 31.7171 14.786C31.6538 17.4904 29.4211 19.6184 26.6793 19.6008C23.9785 19.5835 21.7823 17.4542 21.7236 14.7827C21.7057 13.9679 21.7209 13.1525 21.7209 12.3081C20.6754 12.1037 20.4168 11.4226 20.4579 10.4945C20.5028 9.48082 20.4681 8.46383 20.4681 7.40329C19.6395 7.40329 18.8681 7.40329 18.0314 7.40329C18.0314 13.0521 18.0314 18.7235 18.0314 24.5016C19.2992 24.5016 20.5907 24.5014 21.8821 24.5018C22.2468 24.502 22.6128 24.485 22.976 24.5091C23.7167 24.5584 24.2182 25.0667 24.2132 25.7343C24.2082 26.3996 23.7032 26.9259 22.9585 26.94C21.5 26.9678 20.0408 26.9498 18.5819 26.9508C18.4045 26.951 18.2272 26.9508 18.0103 26.9508C18.0103 28.9946 18.0103 30.9746 18.0103 33.0736C19.0758 33.0736 20.1575 33.0722 21.2391 33.074C22.5758 33.0763 22.9673 33.4535 22.9687 34.7479C22.971 36.9418 22.9735 39.1359 22.9677 41.3298C22.9648 42.4328 22.5293 42.8614 21.4136 42.8685C20.2978 42.8757 19.1817 42.8702 18.0168 42.8702C18.0168 44.9199 18.0168 46.9177 18.0168 48.9936C18.7865 48.9936 19.5351 48.984 20.2834 48.996C21.1514 49.0099 21.6955 49.4741 21.7122 50.1907C21.7295 50.9325 21.1641 51.4377 20.2589 51.4389C15.6997 51.4447 11.1402 51.4725 6.58136 51.4281C3.20435 51.3952 0.476813 48.7102 0.470967 45.3947C0.447794 32.2819 0.447794 19.169 0.471176 6.0563C0.47723 2.73932 3.2079 0.0845959 6.58157 0.0187593C8.22227 -0.0131366 9.86422 0.0030159 11.5053 0.0136479C12.484 0.0199862 12.9596 0.468165 12.9607 1.4138C12.968 8.22522 12.9671 15.0369 12.9615 21.8483C12.9609 22.7338 12.4429 23.2883 11.6859 23.2709C10.9339 23.2535 10.4667 22.7048 10.4661 21.7941C10.4619 15.6969 10.4638 9.59982 10.4638 3.50258C10.4638 3.19691 10.4638 2.89124 10.4638 2.37886C8.78949 2.47107 7.11497 2.39808 5.51331 2.69863C3.9365 2.99428 2.96761 4.54983 2.96385 6.23479C2.95467 10.3167 2.96072 14.3983 2.96051 18.4802C2.96051 25.4703 2.96051 32.4604 2.96051 39.4504C2.96051 39.7213 2.96051 39.992 2.96051 40.4314C5.28805 38.6828 7.89973 39.35 10.4638 39.161C10.4638 38.8682 10.4638 38.5969 10.4638 38.3256C10.4638 34.703 10.4634 31.0803 10.4646 27.4579C10.4646 27.2285 10.4417 26.9921 10.4884 26.7711C10.6273 26.1142 11.0517 25.7296 11.7433 25.7414C12.3976 25.7525 12.7974 26.1346 12.9379 26.7531C12.9824 26.9488 12.9642 27.1594 12.9642 27.3632C12.9655 31.5727 12.9663 35.7819 12.9644 39.9914C12.9638 41.2467 12.5619 41.6426 11.2916 41.6452C9.8066 41.6485 8.32143 41.6377 6.83648 41.6481C4.63232 41.6636 2.96239 43.2531 2.96302 45.3196C2.96364 47.3859 4.63211 48.9801 6.83794 48.9901C9.6755 49.003 12.5131 48.9932 15.4663 48.9932C15.4663 48.6652 15.4663 48.3712 15.4663 48.0774C15.4663 34.3014 15.4663 20.5252 15.4665 6.74922C15.4665 5.23498 15.798 4.90906 17.3381 4.90886C32.2142 4.90866 47.0903 4.90866 61.9662 4.90866C62.2743 4.90866 62.5824 4.90866 62.9876 4.90866C62.9876 3.76981 62.9841 2.68228 62.9887 1.59495C62.9935 0.436269 63.4121 0.000562359 64.5734 0.0150791C66.5242 0.0396145 68.4985 -0.079382 70.4193 0.176195C73.3147 0.5614 75.4435 3.08445 75.4763 5.95141C75.5231 10.0327 75.4955 14.1149 75.4892 18.1966C75.488 19.0433 74.9982 19.5802 74.2698 19.5972C73.5133 19.6147 72.9972 19.06 72.9955 18.1749C72.9882 14.2973 72.9938 10.4195 72.9915 6.54189C72.9899 3.93624 71.4853 2.46269 68.8296 2.45982C67.7421 2.4586 66.6546 2.45962 65.5285 2.45962C65.5285 14.715 65.5285 26.8995 65.5285 39.1543C68.0064 39.3741 70.6536 38.663 72.9922 40.4356C72.9922 39.9928 72.9922 39.7223 72.9922 39.4516C72.9922 34.2472 72.992 29.0431 72.9926 23.8387C72.9926 23.6091 72.9707 23.375 73.0082 23.1511C73.1195 22.4884 73.5262 22.1026 74.2164 22.0636C74.8629 22.027 75.3986 22.5095 75.4798 23.1767C75.5074 23.4034 75.4928 23.6353 75.4928 23.8649C75.4932 30.855 75.4945 37.8451 75.4926 44.835C75.4915 48.8742 72.8794 51.4418 68.7692 51.4422C54.5451 51.4436 40.3208 51.4428 26.0967 51.4424C25.8622 51.4424 25.6259 51.4559 25.3938 51.4316C24.7027 51.3592 24.2265 50.8556 24.2265 50.2177C24.2263 49.5783 24.7007 49.0608 25.3931 49.0081C25.8789 48.9707 26.3702 49.0005 26.7215 49.0005ZM45.5354 17.1876C45.5354 21.287 45.5354 25.3237 45.5354 29.3383C49.7141 29.3383 53.8366 29.3383 57.943 29.3383C57.943 25.2581 57.943 21.2392 57.943 17.1876C53.7971 17.1876 49.6932 17.1876 45.5354 17.1876ZM29.2468 46.5687C29.2363 46.7917 29.2248 46.9416 29.223 47.0915C29.2027 48.6519 29.5401 48.9926 31.1062 48.993C32.9012 48.9934 34.6962 48.9932 36.4912 48.9932C39.4047 48.9932 42.3185 48.9975 45.232 48.9905C46.1926 48.9883 46.6813 48.5601 46.7247 47.7053C46.7435 47.335 46.7278 46.9629 46.7278 46.5689C40.8609 46.5687 35.0935 46.5687 29.2468 46.5687ZM45.5452 12.2703C45.5452 13.0673 45.5452 13.8577 45.5452 14.6537C49.6961 14.6537 53.8172 14.6537 57.9238 14.6537C57.9238 13.8281 57.9238 13.0548 57.9238 12.2703C53.7783 12.2703 49.6946 12.2703 45.5452 12.2703ZM24.2201 12.2834C24.2201 12.8712 24.2192 13.3781 24.2203 13.8849C24.2209 14.2161 24.205 14.5486 24.2299 14.878C24.3211 16.0927 25.3384 17.0749 26.5649 17.1481C27.8255 17.2234 29.0313 16.3411 29.1712 15.1041C29.2752 14.183 29.1916 13.2415 29.1916 12.2832C27.5228 12.2834 25.9196 12.2834 24.2201 12.2834ZM30.4346 7.4082C27.9253 7.4082 25.4712 7.4082 23.0297 7.4082C23.0297 8.23279 23.0297 9.00565 23.0297 9.76931C25.5259 9.76931 27.9614 9.76931 30.4346 9.76931C30.4346 8.97887 30.4346 8.22441 30.4346 7.4082ZM20.4126 40.3876C20.4126 38.7358 20.4126 37.1487 20.4126 35.5852C19.5667 35.5852 18.7773 35.5852 18.0091 35.5852C18.0091 37.217 18.0091 38.7861 18.0091 40.3876C18.8203 40.3876 19.5905 40.3876 20.4126 40.3876Z"
    fill="#F8780F"
  />
      <path
    d="M65.4576 71.0351C65.4576 69.3741 65.4576 67.8026 65.4576 66.1839C64.6424 66.1839 63.8524 66.1839 63.0111 66.1839C62.9123 67.173 63.3044 68.4736 61.6816 68.5648C60.8409 68.612 60.5877 68.0706 60.4436 66.19C59.6585 66.19 58.8677 66.19 58.0222 66.19C57.8898 67.1638 58.3199 68.5288 56.6232 68.5599C55.7896 68.575 55.5504 68.0261 55.4552 66.1978C54.6712 66.1978 53.8806 66.1978 53.0163 66.1978C52.8836 67.1409 53.3186 68.608 51.6443 68.5374C50.1608 68.4748 50.5619 67.1371 50.4514 66.1783C49.6469 66.1783 48.875 66.1783 47.9771 66.1783C47.9771 66.559 47.997 66.9555 47.9728 67.3491C47.9279 68.078 47.4181 68.5736 46.7398 68.5799C46.0592 68.5861 45.5364 68.0943 45.4876 67.3701C45.4621 66.9925 45.483 66.612 45.483 66.1855C44.6404 66.1855 43.8498 66.1855 43.0033 66.1855C42.8997 67.1645 43.2997 68.4689 41.6797 68.5652C40.829 68.6157 40.5647 68.0565 40.4402 66.1926C39.6551 66.1926 38.864 66.1926 38.0208 66.1926C37.8709 67.1291 38.3106 68.5597 36.7002 68.5401C35.1501 68.5213 35.5576 67.1454 35.4478 66.1738C34.6292 66.1738 33.8574 66.1738 33.0033 66.1738C32.8806 67.1377 33.3081 68.6022 31.6424 68.5374C30.161 68.4798 30.5391 67.151 30.4551 66.1808C29.6228 66.1808 28.8322 66.1808 28.0457 66.1808C27.7718 68.1829 27.5149 68.6227 26.6597 68.5799C25.8263 68.5382 25.5863 68.0823 25.4224 66.188C24.6368 66.188 23.8462 66.188 22.9957 66.188C22.8855 67.1546 23.2969 68.4648 21.6777 68.5656C20.8157 68.6192 20.542 68.0461 20.437 66.1951C19.6519 66.1951 18.8604 66.1951 18.013 66.1951C17.8571 67.1197 18.3072 68.5562 16.6982 68.5401C15.15 68.5245 15.5335 67.1602 15.4471 66.1765C14.6256 66.1765 13.854 66.1765 12.9941 66.1765C12.8674 67.1287 13.3062 68.5977 11.6402 68.5388C10.1494 68.4861 10.5415 67.1522 10.4325 66.1835C9.61936 66.1835 8.82855 66.1835 7.9866 66.1835C7.88764 67.1737 8.27971 68.474 6.65696 68.5654C5.81626 68.6127 5.56281 68.0712 5.41897 66.1906C4.6338 66.1906 3.84299 66.1906 3.00563 66.1906C3.00563 67.7676 3.00563 69.3395 3.00563 71.0357C3.28224 71.0357 3.58099 71.0357 3.87953 71.0357C16.2796 71.0357 28.6798 71.0357 41.0799 71.0357C42.3801 71.0357 42.9561 71.4027 42.9711 72.2394C42.9866 73.0908 42.377 73.4848 41.0429 73.4848C28.1478 73.4848 15.2527 73.485 2.35762 73.4848C0.774955 73.4848 0.459091 73.1697 0.458882 71.5931C0.458673 69.5012 0.456586 67.4096 0.459717 65.3178C0.461596 64.102 0.86723 63.6894 2.07662 63.6894C23.5163 63.6878 44.9561 63.6878 66.3958 63.6896C67.5626 63.6896 67.9853 64.1116 67.9876 65.2669C67.9922 67.4861 67.9927 69.7055 67.9874 71.9247C67.9847 73.0652 67.5534 73.4829 66.3755 73.4835C59.9409 73.4862 53.5065 73.486 47.0719 73.4835C46.073 73.4831 45.5043 73.0466 45.4851 72.2887C45.4653 71.5007 46.0504 71.0372 47.0903 71.0367C52.8736 71.0345 58.6568 71.0355 64.4401 71.0355C64.7511 71.0351 65.062 71.0351 65.4576 71.0351Z"
    fill="#F8780F"
  />
      <path
    d="M55.45 58.7901C55.45 57.9315 55.45 57.1762 55.45 56.3811C47.5596 56.3811 39.7037 56.3811 31.7858 56.3811C31.7858 57.139 31.7858 57.9129 31.7858 58.7897C32.0462 58.7897 32.3217 58.7897 32.5973 58.7897C37.1812 58.7897 41.7651 58.7809 46.3488 58.8048C46.7619 58.8068 47.2849 58.9084 47.5546 59.1665C47.8168 59.4173 47.9966 59.9858 47.888 60.3108C47.7669 60.6736 47.3102 60.9651 46.94 61.1962C46.7515 61.3139 46.4325 61.2379 46.1724 61.2379C41.1196 61.2393 36.067 61.2467 31.0144 61.227C30.5086 61.225 29.9794 61.1228 29.5019 60.9551C27.2752 60.1732 25.0661 59.3439 22.8435 58.5502C22.2037 58.3218 21.7089 57.9939 21.7281 57.2615C21.7483 56.4897 22.2897 56.1987 22.9738 56.0067C25.0228 55.4316 27.0535 54.792 29.1101 54.2445C29.9003 54.0341 30.7405 53.9077 31.5583 53.9061C42.3668 53.8842 53.1755 53.8897 63.9839 53.893C66.2781 53.8936 67.9626 55.4257 67.9875 57.5126C68.0111 59.4928 66.4255 61.2007 64.4015 61.2215C60.2088 61.2651 56.0151 61.2428 51.822 61.2315C51.0187 61.2295 50.4955 60.7194 50.4891 60.0242C50.4824 59.3018 51.0231 58.8052 51.878 58.7937C53.0458 58.7784 54.2141 58.7901 55.45 58.7901ZM60.4493 56.3917C59.6074 56.3917 58.8197 56.3917 58.045 56.3917C58.045 57.2159 58.045 57.9878 58.045 58.7518C58.8742 58.7518 59.6437 58.7518 60.4493 58.7518C60.4493 57.9616 60.4493 57.2079 60.4493 56.3917ZM63.0282 58.7684C63.8416 58.752 64.7395 59.0638 65.2317 58.2257C65.4315 57.8855 65.433 57.2468 65.2345 56.9059C64.7445 56.0638 63.8443 56.3799 63.0282 56.3609C63.0282 57.1781 63.0282 57.9487 63.0282 58.7684ZM29.1969 56.751C28.46 56.9798 27.828 57.1758 26.9825 57.4382C27.8627 57.751 28.5036 57.9788 29.1969 58.2251C29.1969 57.707 29.1969 57.2836 29.1969 56.751Z"
    fill="#F8780F"
  />
      <path
    d="M42.9762 36.77C42.9608 39.475 40.6992 41.6599 37.9303 41.6443C35.1788 41.629 32.9489 39.3969 32.9748 36.6837C33.0003 34.0175 35.2502 31.8447 37.9802 31.8496C40.7462 31.8545 42.9917 34.066 42.9762 36.77ZM40.4725 36.7751C40.4877 35.4414 39.3821 34.3244 38.0239 34.3011C36.6274 34.2772 35.4779 35.3864 35.4784 36.7571C35.4788 38.0814 36.6134 39.1926 37.9656 39.1931C39.3324 39.1935 40.4572 38.1086 40.4725 36.7751Z"
    fill="#F8780F"
  />
    </svg>
