<svg
  width="76"
  height="74"
  viewBox="0 0 76 74"
  fill="none"
  xmlns="http://www.w3.org/2000/svg"
>
      <path
    d="M41.2716 73.5188C39.8604 72.9799 39.336 71.963 39.356 70.495C39.4085 66.6467 39.3716 62.7972 39.3747 58.9482C39.3764 57.0565 40.3124 56.1471 42.2566 56.147C52.4821 56.1455 62.7076 56.1624 72.9329 56.1285C74.4359 56.1234 75.4714 56.6158 76.0022 58.0148C76.0022 62.5606 76.0022 67.1065 76.0022 71.6524C75.6606 72.562 75.0256 73.1841 74.0971 73.5186C63.1554 73.5188 52.2136 73.5188 41.2716 73.5188ZM57.6956 71.3589C57.6956 71.361 57.6956 71.3632 57.6956 71.3654C62.797 71.3654 67.8984 71.3585 72.9997 71.3749C73.5643 71.3767 73.8234 71.2816 73.8187 70.639C73.7895 66.7655 73.7928 62.8919 73.8167 59.0185C73.8201 58.4449 73.6434 58.2882 73.0671 58.2891C62.8399 58.3061 52.6128 58.3088 42.3856 58.2941C41.7548 58.2932 41.5517 58.4499 41.557 59.0958C41.5885 62.8973 41.5911 66.6994 41.5559 70.5009C41.5493 71.2079 41.7772 71.376 42.4651 71.3724C47.5417 71.3472 52.6187 71.3589 57.6956 71.3589Z"
    fill="#F8780F"
  />
      <path
    d="M76.0022 34.3283C75.3847 35.7151 74.2807 36.121 72.7814 36.1151C62.6998 36.0751 52.6182 36.0944 42.5364 36.094C42.2923 36.094 42.0478 36.0982 41.8042 36.0859C40.3932 36.0153 39.3968 35.0914 39.3874 33.7111C39.3592 29.5265 39.3627 25.3415 39.3845 21.1569C39.3915 19.828 40.2813 18.9128 41.6205 18.7463C41.9096 18.7104 42.2049 18.7145 42.4973 18.7145C52.6033 18.7131 62.7095 18.7282 72.8155 18.6971C74.3174 18.6924 75.4221 19.1321 76.0022 20.5472C76.0022 25.1408 76.0022 29.7345 76.0022 34.3283ZM41.6135 33.877C41.9357 33.8939 42.2207 33.9216 42.5059 33.9217C52.6828 33.9293 62.8598 33.9298 73.0367 33.951C73.6473 33.9523 73.8207 33.7706 73.8169 33.1769C73.7921 29.304 73.8046 25.4309 73.8026 21.5578C73.8026 21.3708 73.7809 21.1839 73.7664 20.9483C73.4261 20.9242 73.1138 20.8826 72.8014 20.8825C62.6487 20.8749 52.4963 20.8758 42.3437 20.8566C41.7272 20.8555 41.5572 21.0568 41.5607 21.6435C41.5831 25.4925 41.5717 29.3417 41.5739 33.1909C41.5739 33.3997 41.5974 33.6088 41.6135 33.877Z"
    fill="#F8780F"
  />
      <path
    d="M11.9629 73.5187C11.4841 73.1545 11.052 72.7616 11.3134 72.0852C11.5679 71.4264 12.1382 71.3615 12.7582 71.3618C20.008 71.3654 27.2578 71.3539 34.5075 71.3734C35.1893 71.3751 35.4257 71.2161 35.4189 70.5053C35.3831 66.7036 35.3865 62.9012 35.4173 59.0995C35.4224 58.4588 35.229 58.2929 34.5925 58.2938C24.3646 58.3091 14.1367 58.3062 3.909 58.2891C3.33508 58.2882 3.15412 58.4408 3.1576 59.0169C3.18183 62.8906 3.18036 66.7645 3.1587 70.6383C3.15558 71.1983 3.30792 71.405 3.90111 71.3773C4.8509 71.3327 5.80455 71.3734 6.75655 71.3626C7.37342 71.3556 7.94366 71.4194 8.20318 72.081C8.46931 72.7592 8.03341 73.1477 7.56631 73.5189C6.00314 73.5189 4.43997 73.5189 2.87698 73.5189C1.45421 72.9931 0.933152 71.9782 0.953708 70.507C1.00767 66.6596 0.970593 62.8108 0.972428 58.9627C0.973346 57.053 1.89121 56.1474 3.83228 56.1472C14.1288 56.1456 24.4253 56.1456 34.7217 56.1471C36.6642 56.1472 37.5977 57.0568 37.5993 58.9517C37.6025 62.7998 37.5656 66.6484 37.6181 70.496C37.6381 71.9637 37.1133 72.9801 35.7025 73.5189C27.7895 73.5187 19.8762 73.5187 11.9629 73.5187Z"
    fill="#F8780F"
  />
      <path
    d="M76.0025 15.5224C75.4721 16.9203 74.4384 17.4299 72.9351 17.409C69.0331 17.3549 65.1297 17.3934 61.2268 17.3896C59.3832 17.3878 58.4257 16.4574 58.4235 14.6601C58.4187 10.6936 58.4187 6.72684 58.4235 2.76029C58.4257 0.957032 59.3821 0.0214308 61.221 0.0196333C65.1238 0.0158585 69.0271 0.0536061 72.9292 0.000579731C74.4307 -0.0197321 75.4663 0.491478 76.0027 1.88454C76.0025 6.43061 76.0025 10.9765 76.0025 15.5224ZM73.8043 8.74274C73.8043 6.78238 73.7885 4.82167 73.8148 2.86167C73.8218 2.33338 73.6593 2.15884 73.1093 2.16154C69.1802 2.18095 65.2508 2.18059 61.3217 2.16172C60.7768 2.15902 60.6079 2.32637 60.6105 2.85843C60.629 6.75524 60.629 10.6522 60.6105 14.5492C60.6079 15.0793 60.7717 15.2501 61.3188 15.2474C65.2479 15.2283 69.1772 15.2283 73.1063 15.2474C73.6509 15.2501 73.8227 15.086 73.8152 14.5521C73.7878 12.616 73.8043 10.6794 73.8043 8.74274Z"
    fill="#F8780F"
  />
      <path
    d="M76.0023 52.9901C75.4223 54.4049 74.3191 54.8605 72.8163 54.8408C69.0341 54.7906 65.2507 54.8253 61.4679 54.8237C59.3259 54.8228 58.4225 53.9481 58.4219 51.8769C58.421 48.0038 58.4199 44.1307 58.4225 40.2576C58.4238 38.3458 59.3341 37.4476 61.2873 37.4447C65.119 37.4391 68.9514 37.4857 72.7819 37.4217C74.2827 37.3965 75.3848 37.8227 76.0023 39.209C76.0023 43.8027 76.0023 48.3964 76.0023 52.9901ZM73.8041 46.122C73.8041 44.1861 73.7899 42.25 73.8136 40.3142C73.8197 39.8133 73.7147 39.5837 73.1363 39.5868C69.1839 39.6069 65.2315 39.6037 61.279 39.5895C60.7699 39.5877 60.6086 39.755 60.6108 40.2547C60.628 44.1744 60.6275 48.0942 60.6113 52.0138C60.6093 52.5189 60.791 52.6791 61.2917 52.6775C65.2441 52.6649 69.1968 52.6644 73.1492 52.6778C73.6649 52.6796 73.8187 52.4927 73.8132 52.0014C73.791 50.0418 73.8041 48.0818 73.8041 46.122Z"
    fill="#F8780F"
  />
      <path
    d="M38.408 17.3909C33.2815 17.3909 28.1551 17.3925 23.0286 17.3901C21.091 17.3892 20.173 16.481 20.1719 14.5668C20.1695 10.6448 20.1689 6.72303 20.1722 2.80105C20.1739 0.943691 21.1141 0.0195943 23.0033 0.0194145C33.3295 0.017617 43.6556 0.017617 53.9819 0.0194145C55.8369 0.019774 56.7968 0.945129 56.799 2.7403C56.8037 6.71008 56.8032 10.6797 56.7991 14.6495C56.7973 16.4623 55.8541 17.3883 54.0072 17.3896C48.8073 17.393 43.6077 17.3909 38.408 17.3909ZM38.4885 15.2373C43.5901 15.2373 48.6917 15.2346 53.7932 15.2416C54.2722 15.2423 54.6208 15.2513 54.6158 14.5866C54.587 10.6653 54.5943 6.7437 54.6105 2.82208C54.6125 2.32166 54.4486 2.16258 53.9369 2.1633C43.6606 2.17732 33.3842 2.18001 23.1079 2.17031C22.5481 2.16977 22.3515 2.31285 22.3556 2.89812C22.3826 6.74765 22.384 10.5977 22.355 14.4473C22.3503 15.0859 22.5437 15.2534 23.1837 15.2506C28.2854 15.2267 33.387 15.2373 38.4885 15.2373Z"
    fill="#F8780F"
  />
      <path
    d="M19.2669 36.094C14.1657 36.094 9.06431 36.0955 3.96312 36.0935C1.84623 36.0928 0.972413 35.2428 0.971862 33.1914C0.970945 29.2941 0.969476 25.3967 0.972596 21.4994C0.974065 19.6561 1.92331 18.7163 3.81171 18.7154C14.1363 18.7109 24.4607 18.7104 34.7854 18.716C36.6238 18.717 37.596 19.6733 37.5984 21.4589C37.6037 25.428 37.6037 29.3971 37.5984 33.3662C37.596 35.1685 36.6519 36.0894 34.7901 36.0919C29.6157 36.0984 24.4413 36.094 19.2669 36.094ZM3.19613 33.8738C3.49364 33.8925 3.7315 33.9205 3.96937 33.9207C14.1951 33.9286 24.4207 33.9311 34.6464 33.948C35.1924 33.9489 35.4187 33.8272 35.4147 33.2312C35.3886 29.3583 35.3921 25.4852 35.4118 21.6123C35.4145 21.0613 35.26 20.8566 34.6712 20.8577C24.4455 20.8762 14.2198 20.8769 3.99414 20.8861C3.73462 20.8863 3.4751 20.9375 3.19595 20.967C3.19613 25.2745 3.19613 29.5258 3.19613 33.8738Z"
    fill="#F8780F"
  />
      <path
    d="M54.6015 52.6038C54.6015 50.367 54.6015 48.2402 54.6015 46.1132C54.6015 44.1994 54.5813 42.2851 54.6136 40.3718C54.6236 39.7903 54.4663 39.5624 53.8406 39.5852C52.6944 39.6271 51.5453 39.6045 50.3976 39.5924C49.7523 39.5856 49.2452 39.3541 49.1166 38.6615C49.0066 38.0698 49.4299 37.4929 50.0862 37.4782C51.6473 37.4433 53.2136 37.4167 54.7713 37.5019C55.8828 37.5627 56.7728 38.563 56.7805 39.7157C56.8091 43.9977 56.8107 48.2803 56.7772 52.5621C56.7682 53.7066 55.8967 54.5698 54.7353 54.7608C54.4246 54.8119 54.104 54.8216 53.7877 54.8218C43.5795 54.8248 33.3712 54.825 23.163 54.8236C21.0778 54.8232 20.1715 53.9336 20.171 51.8949C20.1699 48.0193 20.1691 44.1437 20.1713 40.2681C20.1724 38.346 21.0756 37.4462 23.027 37.4449C30.2069 37.4406 37.387 37.4419 44.5669 37.4478C44.8795 37.448 45.29 37.4068 45.4816 37.5747C45.7727 37.83 46.0745 38.2549 46.0669 38.6016C46.0603 38.9079 45.6914 39.2897 45.3812 39.4808C45.1245 39.639 44.7203 39.5939 44.3813 39.5942C37.3481 39.6025 30.3148 39.6145 23.2815 39.5924C22.5476 39.5901 22.3439 39.7768 22.3521 40.5115C22.3941 44.2909 22.3841 48.0712 22.3591 51.851C22.3551 52.4615 22.5061 52.6845 23.1707 52.6831C33.2567 52.6614 43.3427 52.6641 53.4287 52.6581C53.7907 52.6576 54.1524 52.6254 54.6015 52.6038Z"
    fill="#F8780F"
  />
      <path
    d="M0.971645 46.1059C0.971645 44.0979 0.965221 42.09 0.97348 40.082C0.980454 38.4017 1.9253 37.454 3.64539 37.4483C7.72043 37.4342 11.7957 37.4342 15.8709 37.4483C17.5866 37.4542 18.5457 38.4061 18.5492 40.0793C18.5575 44.1192 18.5586 48.1591 18.5485 52.1989C18.5444 53.8147 17.5655 54.8075 15.91 54.8165C11.8105 54.8384 7.71089 54.8382 3.61144 54.8166C1.95264 54.8077 0.98229 53.818 0.974031 52.2016C0.963753 50.1697 0.971645 48.1378 0.971645 46.1059ZM3.16967 46.1739C3.16967 48.1098 3.1871 50.0461 3.15847 51.9816C3.1504 52.525 3.34659 52.6809 3.87756 52.6789C7.80559 52.664 11.7338 52.6629 15.6618 52.6796C16.2157 52.6819 16.3657 52.4831 16.3633 51.9622C16.3455 48.0665 16.3437 44.1706 16.3648 40.275C16.3677 39.7246 16.1695 39.5864 15.6418 39.5885C11.7138 39.6049 7.78559 39.6062 3.85756 39.5875C3.30346 39.5848 3.15168 39.7697 3.15884 40.2948C3.18582 42.2541 3.16967 44.2141 3.16967 46.1739Z"
    fill="#F8780F"
  />
      <path
    d="M9.79082 17.3908C7.76459 17.391 5.73836 17.3955 3.71194 17.3896C1.95349 17.3844 0.983686 16.4448 0.973408 14.742C0.966985 13.6898 0.968269 12.6375 0.973408 11.5853C0.977813 10.6671 1.35333 10.1825 2.05407 10.1726C2.78013 10.1624 3.16574 10.6594 3.16941 11.623C3.17327 12.6035 3.19859 13.5852 3.15932 14.5641C3.13729 15.1152 3.35221 15.2491 3.88116 15.2468C7.81158 15.2292 11.7422 15.231 15.6726 15.2452C16.1617 15.247 16.3664 15.1265 16.364 14.6045C16.346 10.6826 16.3445 6.7604 16.3653 2.83843C16.3682 2.2803 16.1516 2.16077 15.632 2.16311C11.726 2.17964 7.81984 2.18216 3.91402 2.16095C3.3445 2.15789 3.13179 2.30367 3.15803 2.88678C3.203 3.88925 3.17657 4.89513 3.16849 5.89958C3.16152 6.75231 2.76692 7.23494 2.09004 7.24573C1.40435 7.25669 0.982769 6.77514 0.975244 5.93607C0.964966 4.78818 0.957441 3.63993 0.977079 2.49241C1.00167 1.02151 2.01607 0.0285688 3.53098 0.0237155C7.68108 0.010414 11.8314 0.0102343 15.9815 0.0237155C17.5322 0.0287486 18.5418 1.02421 18.5471 2.55676C18.5616 6.64626 18.5603 10.7358 18.5482 14.8251C18.5436 16.4051 17.5448 17.3781 15.9429 17.3876C13.8923 17.3998 11.8415 17.3907 9.79082 17.3908Z"
    fill="#F8780F"
  />
    </svg>
